<mxfile host="app.diagrams.net" modified="2025-03-07T03:26:47.227Z" agent="Mozilla/5.0 (Macintosh; Intel Mac OS X 10_15_7) AppleWebKit/537.36 (KHTML, like Gecko) Chrome/133.0.0.0 Safari/537.36" etag="mciP6h1EG-AzAciXhC0N" version="21.3.2" type="github">
  <diagram name="第 1 页" id="JXJpTpx2nW5wvLFsWMLq">
    <mxGraphModel dx="1242" dy="785" grid="1" gridSize="10" guides="1" tooltips="1" connect="1" arrows="1" fold="1" page="1" pageScale="1" pageWidth="827" pageHeight="1169" math="0" shadow="0">
      <root>
        <mxCell id="0" />
        <mxCell id="1" parent="0" />
        <mxCell id="S_wXsO7prA444CMSDPE2-11" value="" style="edgeStyle=orthogonalEdgeStyle;rounded=0;orthogonalLoop=1;jettySize=auto;html=1;" edge="1" parent="1" source="S_wXsO7prA444CMSDPE2-1" target="S_wXsO7prA444CMSDPE2-5">
          <mxGeometry relative="1" as="geometry" />
        </mxCell>
        <mxCell id="S_wXsO7prA444CMSDPE2-1" value="需求" style="rounded=0;whiteSpace=wrap;html=1;fillColor=#fa6800;fontColor=#000000;strokeColor=#C73500;" vertex="1" parent="1">
          <mxGeometry x="150" y="190" width="120" height="60" as="geometry" />
        </mxCell>
        <mxCell id="S_wXsO7prA444CMSDPE2-20" value="" style="edgeStyle=orthogonalEdgeStyle;rounded=0;orthogonalLoop=1;jettySize=auto;html=1;" edge="1" parent="1" source="S_wXsO7prA444CMSDPE2-2" target="S_wXsO7prA444CMSDPE2-6">
          <mxGeometry relative="1" as="geometry" />
        </mxCell>
        <mxCell id="S_wXsO7prA444CMSDPE2-2" value="复杂度" style="rounded=0;whiteSpace=wrap;html=1;fillColor=#fa6800;fontColor=#000000;strokeColor=#C73500;" vertex="1" parent="1">
          <mxGeometry x="580" y="190" width="120" height="60" as="geometry" />
        </mxCell>
        <mxCell id="S_wXsO7prA444CMSDPE2-24" value="" style="edgeStyle=orthogonalEdgeStyle;rounded=0;orthogonalLoop=1;jettySize=auto;html=1;" edge="1" parent="1" source="S_wXsO7prA444CMSDPE2-3" target="S_wXsO7prA444CMSDPE2-7">
          <mxGeometry relative="1" as="geometry" />
        </mxCell>
        <mxCell id="S_wXsO7prA444CMSDPE2-3" value="备选方案" style="rounded=0;whiteSpace=wrap;html=1;fillColor=#fa6800;fontColor=#000000;strokeColor=#C73500;" vertex="1" parent="1">
          <mxGeometry x="580" y="440" width="120" height="60" as="geometry" />
        </mxCell>
        <mxCell id="S_wXsO7prA444CMSDPE2-16" value="" style="edgeStyle=orthogonalEdgeStyle;rounded=0;orthogonalLoop=1;jettySize=auto;html=1;" edge="1" parent="1" source="S_wXsO7prA444CMSDPE2-4" target="S_wXsO7prA444CMSDPE2-8">
          <mxGeometry relative="1" as="geometry" />
        </mxCell>
        <mxCell id="S_wXsO7prA444CMSDPE2-4" value="架构方案（4R）" style="rounded=0;whiteSpace=wrap;html=1;fillColor=#fa6800;fontColor=#000000;strokeColor=#C73500;" vertex="1" parent="1">
          <mxGeometry x="150" y="440" width="120" height="60" as="geometry" />
        </mxCell>
        <mxCell id="S_wXsO7prA444CMSDPE2-19" value="" style="edgeStyle=orthogonalEdgeStyle;rounded=0;orthogonalLoop=1;jettySize=auto;html=1;entryX=0;entryY=0.5;entryDx=0;entryDy=0;" edge="1" parent="1" source="S_wXsO7prA444CMSDPE2-5" target="S_wXsO7prA444CMSDPE2-2">
          <mxGeometry relative="1" as="geometry">
            <mxPoint x="534" y="220" as="targetPoint" />
          </mxGeometry>
        </mxCell>
        <mxCell id="S_wXsO7prA444CMSDPE2-31" style="edgeStyle=orthogonalEdgeStyle;rounded=0;orthogonalLoop=1;jettySize=auto;html=1;exitX=0.5;exitY=0;exitDx=0;exitDy=0;entryX=0.5;entryY=0;entryDx=0;entryDy=0;dashed=1;" edge="1" parent="1" source="S_wXsO7prA444CMSDPE2-5" target="S_wXsO7prA444CMSDPE2-1">
          <mxGeometry relative="1" as="geometry" />
        </mxCell>
        <mxCell id="S_wXsO7prA444CMSDPE2-5" value="判断" style="rhombus;whiteSpace=wrap;html=1;fillColor=#0050ef;fontColor=#ffffff;strokeColor=#001DBC;" vertex="1" parent="1">
          <mxGeometry x="374" y="180" width="80" height="80" as="geometry" />
        </mxCell>
        <mxCell id="S_wXsO7prA444CMSDPE2-21" value="" style="edgeStyle=orthogonalEdgeStyle;rounded=0;orthogonalLoop=1;jettySize=auto;html=1;" edge="1" parent="1" source="S_wXsO7prA444CMSDPE2-6" target="S_wXsO7prA444CMSDPE2-3">
          <mxGeometry relative="1" as="geometry" />
        </mxCell>
        <mxCell id="S_wXsO7prA444CMSDPE2-6" value="拆解" style="rhombus;whiteSpace=wrap;html=1;fillColor=#0050ef;fontColor=#ffffff;strokeColor=#001DBC;" vertex="1" parent="1">
          <mxGeometry x="600" y="310" width="80" height="80" as="geometry" />
        </mxCell>
        <mxCell id="S_wXsO7prA444CMSDPE2-22" value="" style="edgeStyle=orthogonalEdgeStyle;rounded=0;orthogonalLoop=1;jettySize=auto;html=1;" edge="1" parent="1" source="S_wXsO7prA444CMSDPE2-7" target="S_wXsO7prA444CMSDPE2-4">
          <mxGeometry relative="1" as="geometry" />
        </mxCell>
        <mxCell id="S_wXsO7prA444CMSDPE2-7" value="取舍" style="rhombus;whiteSpace=wrap;html=1;fillColor=#0050ef;fontColor=#ffffff;strokeColor=#001DBC;" vertex="1" parent="1">
          <mxGeometry x="374" y="430" width="80" height="80" as="geometry" />
        </mxCell>
        <mxCell id="S_wXsO7prA444CMSDPE2-23" value="" style="edgeStyle=orthogonalEdgeStyle;rounded=0;orthogonalLoop=1;jettySize=auto;html=1;" edge="1" parent="1" source="S_wXsO7prA444CMSDPE2-8" target="S_wXsO7prA444CMSDPE2-1">
          <mxGeometry relative="1" as="geometry" />
        </mxCell>
        <mxCell id="S_wXsO7prA444CMSDPE2-8" value="实现" style="rhombus;whiteSpace=wrap;html=1;fillColor=#0050ef;fontColor=#ffffff;strokeColor=#001DBC;" vertex="1" parent="1">
          <mxGeometry x="170" y="300" width="80" height="80" as="geometry" />
        </mxCell>
        <mxCell id="S_wXsO7prA444CMSDPE2-26" value="" style="edgeStyle=orthogonalEdgeStyle;rounded=0;orthogonalLoop=1;jettySize=auto;html=1;dashed=1;" edge="1" parent="1" source="S_wXsO7prA444CMSDPE2-9" target="S_wXsO7prA444CMSDPE2-5">
          <mxGeometry relative="1" as="geometry" />
        </mxCell>
        <mxCell id="S_wXsO7prA444CMSDPE2-27" value="" style="edgeStyle=orthogonalEdgeStyle;rounded=0;orthogonalLoop=1;jettySize=auto;html=1;dashed=1;" edge="1" parent="1" source="S_wXsO7prA444CMSDPE2-9" target="S_wXsO7prA444CMSDPE2-7">
          <mxGeometry relative="1" as="geometry" />
        </mxCell>
        <mxCell id="S_wXsO7prA444CMSDPE2-29" style="edgeStyle=orthogonalEdgeStyle;rounded=0;orthogonalLoop=1;jettySize=auto;html=1;entryX=0;entryY=0.5;entryDx=0;entryDy=0;dashed=1;" edge="1" parent="1" source="S_wXsO7prA444CMSDPE2-9" target="S_wXsO7prA444CMSDPE2-6">
          <mxGeometry relative="1" as="geometry" />
        </mxCell>
        <mxCell id="S_wXsO7prA444CMSDPE2-9" value="架构设计三原则" style="ellipse;whiteSpace=wrap;html=1;fillColor=#60a917;fontColor=#ffffff;strokeColor=#2D7600;" vertex="1" parent="1">
          <mxGeometry x="354" y="310" width="120" height="80" as="geometry" />
        </mxCell>
        <mxCell id="S_wXsO7prA444CMSDPE2-32" value="&lt;b&gt;澄清不确定性&lt;/b&gt;" style="text;html=1;strokeColor=none;fillColor=none;align=center;verticalAlign=middle;whiteSpace=wrap;rounded=0;" vertex="1" parent="1">
          <mxGeometry x="277" y="130" width="80" height="30" as="geometry" />
        </mxCell>
        <mxCell id="S_wXsO7prA444CMSDPE2-33" value="&lt;b&gt;高可用&lt;br&gt;高性能&lt;br&gt;可扩展&lt;br&gt;成本&lt;br&gt;安全&lt;br&gt;规模&lt;/b&gt;" style="text;html=1;strokeColor=none;fillColor=none;align=center;verticalAlign=middle;whiteSpace=wrap;rounded=0;" vertex="1" parent="1">
          <mxGeometry x="710" y="200" width="60" height="30" as="geometry" />
        </mxCell>
        <mxCell id="S_wXsO7prA444CMSDPE2-34" value="&lt;b&gt;简单&lt;br&gt;合适&lt;br&gt;演进&lt;/b&gt;" style="text;html=1;strokeColor=none;fillColor=none;align=center;verticalAlign=middle;whiteSpace=wrap;rounded=0;" vertex="1" parent="1">
          <mxGeometry x="287" y="335" width="60" height="30" as="geometry" />
        </mxCell>
      </root>
    </mxGraphModel>
  </diagram>
</mxfile>
